<svg xmlns="http://www.w3.org/2000/svg" xmlns:xlink="http://www.w3.org/1999/xlink" viewBox="0 0 48 48"><defs><style>.cls-1{fill:url(#linear-gradient);}.cls-2{fill:url(#linear-gradient-2);}.cls-3{fill:url(#linear-gradient-3);}.cls-4{fill:url(#linear-gradient-4);}.cls-5{fill:url(#linear-gradient-5);}.cls-6{fill:url(#linear-gradient-6);}.cls-7{fill:url(#linear-gradient-7);}.cls-8{fill:url(#linear-gradient-8);}</style><linearGradient id="linear-gradient" x1="24.005" y1="15.714" x2="24.005" y2="35.357" gradientUnits="userSpaceOnUse"><stop offset="0" stop-color="#4793eb"/><stop offset="1" stop-color="#2367ec"/></linearGradient><linearGradient id="linear-gradient-2" x1="19.366" y1="3.866" x2="28.607" y2="13.107" xlink:href="#linear-gradient"/><linearGradient id="linear-gradient-3" x1="25.037" y1="35.193" x2="28.144" y2="42.479" gradientUnits="userSpaceOnUse"><stop offset="0" stop-color="#2b50d2"/><stop offset="1" stop-color="#182ea5"/></linearGradient><linearGradient id="linear-gradient-4" x1="22.538" y1="35.418" x2="20.18" y2="42.703" xlink:href="#linear-gradient"/><linearGradient id="linear-gradient-5" x1="7.272" y1="8.272" x2="12.254" y2="13.254" gradientUnits="userSpaceOnUse"><stop offset="0" stop-color="#fed200"/><stop offset="1" stop-color="#f59815"/></linearGradient><linearGradient id="linear-gradient-6" x1="38.647" y1="16.647" x2="43.517" y2="21.517" xlink:href="#linear-gradient-5"/><linearGradient id="linear-gradient-7" x1="37.268" y1="9.268" x2="38.649" y2="10.649" xlink:href="#linear-gradient-5"/><linearGradient id="linear-gradient-8" x1="4.241" y1="18.241" x2="5.529" y2="19.529" xlink:href="#linear-gradient-5"/></defs><title>Yoga</title><g id="Yoga"><path class="cls-1" d="M30.005,38H18a1,1,0,0,1-1-1V28.947a3.4,3.4,0,0,1-.469.4l-7,5a3.5,3.5,0,0,1-5.077-1.115,3.608,3.608,0,0,1,1.122-4.664l6.183-4.412,3.2-6.393A4.979,4.979,0,0,1,19.423,15h9.154a4.979,4.979,0,0,1,4.476,2.764l3.2,6.393,6.191,4.418a3.578,3.578,0,0,1,1.166,4.563,3.5,3.5,0,0,1-5.13,1.21l-7.007-5a3.48,3.48,0,0,1-.466-.4V37A1,1,0,0,1,30.005,38Z"/><circle class="cls-2" cx="24" cy="8.5" r="6.5"/><path class="cls-3" d="M15.608,45.622a4.03,4.03,0,0,1,.325-7.44h0l18.378-6.688a4.029,4.029,0,1,1,2.756,7.573L18.689,45.756a4.008,4.008,0,0,1-3.081-.134Z"/><path class="cls-4" d="M30.691,46a4.021,4.021,0,0,1-1.38-.245L10.933,39.067a4.029,4.029,0,1,1,2.756-7.573l18.378,6.688h0A4.032,4.032,0,0,1,30.691,46Z"/><path class="cls-5" d="M12,10H11V9A1,1,0,0,0,9,9v1H8a1,1,0,0,0,0,2H9v1a1,1,0,0,0,2,0V12h1a1,1,0,0,0,0-2Z"/><path class="cls-6" d="M43,18H42V17a1,1,0,0,0-2,0v1H39a1,1,0,0,0,0,2h1v1a1,1,0,0,0,2,0V20h1a1,1,0,0,0,0-2Z"/><circle class="cls-7" cx="38" cy="10" r="1"/><circle class="cls-8" cx="5" cy="19" r="1"/></g></svg>